<?xml version="1.0" encoding="UTF-8"?>
<svg id="Layer_1" data-name="Layer 1" xmlns="http://www.w3.org/2000/svg" viewBox="0 0 323 447">
  <defs>
    <style>
      .cls-1 {
        fill: #f26a21;
      }
    </style>
  </defs>
  <path class="cls-1" d="M194.66,438.13c-2.85,9.14-14.53,11.74-20.95,4.65-37.2-41.04-129.32-142.55-138.69-151.93-14.72-14.72-70.85-95.4,0-157.85,0,0,45.22-41.04,82.17-125.58,2.58-5.89,9.22-8.84,15.3-6.77,26.4,8.99,93.93,33.38,125.66,57.92.36.28.72.54,1.11.77,2.64,1.61,16.95,11.75,37.05,52.53,5.11,10.36-5.53,21.43-16.09,16.75l-113.7-50.39c-6.23-2.76-13.5.05-16.29,6.27-7.86,17.53-29.11,54.97-83.94,112.13-2.26,2.36-3.51,5.52-3.45,8.79.24,12.81,4.34,45.69,38.12,66.36.6.36,1.18.78,1.71,1.24l61.22,53.37c5.21,4.54,13.14,3.92,17.59-1.38l53.94-64.37c5.81-6.94,2.45-17.57-6.3-19.88l-95.44-25.3c-8.2-2.18-11.82-11.77-7.1-18.82l27.38-40.91c2.51-3.75,6.86-5.83,11.35-5.43,1.13.1,2.24.36,3.3.75l146.42,55.63c4.77,1.81,7.94,6.36,7.97,11.46.09,16.58-4.37,54.14-41.68,87.2,0,0-63.32,58.06-86.66,132.79h0Z"/>
</svg>